<svg version="1.1" xmlns="http://www.w3.org/2000/svg" viewBox="0 0 5738.5627644562 1983.5775744717835" width="5738.5627644562" height="1983.5775744717835" filter="invert(93%) hue-rotate(180deg)">
  <!-- svg-source:excalidraw -->
  
  <defs>
    <style class="style-fonts">
      @font-face {
        font-family: "Virgil";
        src: url("https://excalidraw.com/Virgil.woff2");
      }
      @font-face {
        font-family: "Cascadia";
        src: url("https://excalidraw.com/Cascadia.woff2");
      }
      @font-face {
        font-family: "Assistant";
        src: url("https://excalidraw.com/Assistant-Regular.woff2");
      }
    </style>
    
  </defs>
  <rect x="0" y="0" width="5738.5627644562" height="1983.5775744717835" fill="#ffffff"></rect><g stroke-linecap="round" transform="translate(547.0311890451057 951.9819834159675) rotate(0 222.6391868355572 109.84320623717144)"><path d="M32 0 C143.16 -1.59, 251.35 -1.13, 413.28 0 M32 0 C126.06 -0.28, 220.96 -1.12, 413.28 0 M413.28 0 C435.37 -1.11, 443.94 11.11, 445.28 32 M413.28 0 C436.42 0.79, 445.97 12.78, 445.28 32 M445.28 32 C446.65 82.89, 447.91 132.92, 445.28 187.69 M445.28 32 C445.53 85.15, 446.92 140.35, 445.28 187.69 M445.28 187.69 C445.6 210.42, 434.64 221.18, 413.28 219.69 M445.28 187.69 C445.35 209.5, 435.46 220.72, 413.28 219.69 M413.28 219.69 C286.84 221.95, 161.21 222.69, 32 219.69 M413.28 219.69 C286.28 220.59, 159.51 220.4, 32 219.69 M32 219.69 C8.9 219.3, -1.5 210.67, 0 187.69 M32 219.69 C10.05 220.62, 0.23 207.73, 0 187.69 M0 187.69 C1.87 154.13, 1.19 118.37, 0 32 M0 187.69 C-0.2 132.29, -1.6 77.82, 0 32 M0 32 C-0.5 9.55, 12.1 -0.35, 32 0 M0 32 C-2.28 12.43, 11.33 -0.22, 32 0" stroke="#e03131" stroke-width="1" fill="none"></path></g><g transform="translate(636.7955296260207 1027.5730070630532) rotate(0 119.84765625 40.91364154898508)"><text x="0" y="65.84539186789796" font-family="Cascadia, Segoe UI Emoji" font-size="68.1894025816419px" fill="#e03131" text-anchor="start" style="white-space: pre;" direction="ltr" dominant-baseline="alphabetic">Client</text></g><g stroke-linecap="round" transform="translate(1157.8667365953916 954.5541988050625) rotate(0 298.07984663280513 107.14676981222613)"><path d="M32 0 C191.97 -2.44, 351.4 -1.2, 564.16 0 M32 0 C153.78 1.96, 275 1.89, 564.16 0 M564.16 0 C584.56 1.75, 596.78 12.41, 596.16 32 M564.16 0 C585.71 0.17, 594.29 8.6, 596.16 32 M596.16 32 C594.49 62.63, 594.83 95.39, 596.16 182.29 M596.16 32 C597.78 66.61, 597.56 99.24, 596.16 182.29 M596.16 182.29 C594.47 203.87, 585.5 213, 564.16 214.29 M596.16 182.29 C598.15 201.34, 585.36 215.7, 564.16 214.29 M564.16 214.29 C404.89 214.79, 247.02 215.51, 32 214.29 M564.16 214.29 C371.58 215.76, 179.34 215.2, 32 214.29 M32 214.29 C9.63 213.09, 1.19 205.28, 0 182.29 M32 214.29 C8.82 215.12, 1.17 202.08, 0 182.29 M0 182.29 C-0.73 143.26, -1.31 100.73, 0 32 M0 182.29 C-0.18 147.56, 0.22 113.97, 0 32 M0 32 C-0.27 9.98, 11.52 -0.87, 32 0 M0 32 C1.82 9.2, 11.42 -2.19, 32 0" stroke="#e03131" stroke-width="1" fill="none"></path></g><g transform="translate(1225.3486720760084 1027.1085005442594) rotate(0 214.3388671875 39.909291465543106)"><text x="0" y="64.22901595235852" font-family="Cascadia, Segoe UI Emoji" font-size="66.51548577590528px" fill="#e03131" text-anchor="start" style="white-space: pre;" direction="ltr" dominant-baseline="alphabetic">Main Server</text></g><g stroke-linecap="round" transform="translate(3259.5334032620585 499.5541988050627) rotate(0 298.07984663280513 107.14676981222613)"><path d="M32 0 C186.9 0.8, 341.34 0.62, 564.16 0 M32 0 C231.19 -1.04, 429.99 -1.67, 564.16 0 M564.16 0 C586.81 1.29, 598.13 12.1, 596.16 32 M564.16 0 C587.34 -0.27, 596.42 9.95, 596.16 32 M596.16 32 C596.41 83.18, 599.38 130.48, 596.16 182.29 M596.16 32 C595.82 82.31, 597.54 133.81, 596.16 182.29 M596.16 182.29 C594.31 202.59, 585.27 212.93, 564.16 214.29 M596.16 182.29 C594.72 201.34, 585.06 214.27, 564.16 214.29 M564.16 214.29 C431.88 214.8, 298.95 215.88, 32 214.29 M564.16 214.29 C406.13 212.26, 248.25 211.93, 32 214.29 M32 214.29 C10.42 214.13, -1.39 205.55, 0 182.29 M32 214.29 C11.04 212.2, -0.21 205.37, 0 182.29 M0 182.29 C0.19 127.18, -1.74 73.73, 0 32 M0 182.29 C0.14 131.33, 0 79.49, 0 32 M0 32 C1.16 8.79, 11.51 -0.5, 32 0 M0 32 C-0.71 9.71, 10.4 -1.9, 32 0" stroke="#e03131" stroke-width="1" fill="none"></path></g><g transform="translate(3327.0153387426753 572.1085005442596) rotate(0 214.3388671875 39.90929146554322)"><text x="0" y="64.22901595235852" font-family="Cascadia, Segoe UI Emoji" font-size="66.51548577590528px" fill="#e03131" text-anchor="start" style="white-space: pre;" direction="ltr" dominant-baseline="alphabetic">Main Server</text></g><g stroke-linecap="round" transform="translate(3267.0334032620585 762.8875321383962) rotate(0 298.07984663280513 107.14676981222613)"><path d="M32 0 C229.62 1.12, 426.09 0.09, 564.16 0 M32 0 C239.18 -0.89, 445.86 -0.82, 564.16 0 M564.16 0 C587.38 -1.05, 597.74 11.57, 596.16 32 M564.16 0 C585.64 0.68, 597.16 9.96, 596.16 32 M596.16 32 C595.73 88.64, 597.48 149.9, 596.16 182.29 M596.16 32 C595.61 70.19, 596.08 109.16, 596.16 182.29 M596.16 182.29 C597.79 204.83, 584.22 214.53, 564.16 214.29 M596.16 182.29 C596.87 202.65, 586.84 212.44, 564.16 214.29 M564.16 214.29 C414.68 215.08, 265.14 215.52, 32 214.29 M564.16 214.29 C362.38 214.14, 159.93 213.71, 32 214.29 M32 214.29 C12.42 212.95, -1.04 201.91, 0 182.29 M32 214.29 C8.43 212.69, 1.99 204.69, 0 182.29 M0 182.29 C0.86 129.58, -0.65 81.48, 0 32 M0 182.29 C-0.47 126.02, -0.6 67.27, 0 32 M0 32 C-1.93 9.42, 11.46 0.35, 32 0 M0 32 C-1.76 12.3, 11.59 2.14, 32 0" stroke="#e03131" stroke-width="1" fill="none"></path></g><g transform="translate(3334.5153387426753 835.4418338775931) rotate(0 214.3388671875 39.90929146554322)"><text x="0" y="64.22901595235852" font-family="Cascadia, Segoe UI Emoji" font-size="66.51548577590528px" fill="#e03131" text-anchor="start" style="white-space: pre;" direction="ltr" dominant-baseline="alphabetic">Main Server</text></g><g stroke-linecap="round" transform="translate(3275.3667365953906 1017.8875321383962) rotate(0 298.07984663280513 107.14676981222613)"><path d="M32 0 C171.19 -1, 310.17 -1.06, 564.16 0 M32 0 C195.26 0.04, 358.2 0.32, 564.16 0 M564.16 0 C583.62 -1.69, 596.34 9.4, 596.16 32 M564.16 0 C583.33 1.69, 593.91 11.99, 596.16 32 M596.16 32 C596.08 81.36, 595.72 132.2, 596.16 182.29 M596.16 32 C598.19 75.08, 598.02 119.49, 596.16 182.29 M596.16 182.29 C594.86 201.79, 586.33 213.16, 564.16 214.29 M596.16 182.29 C595.07 205.66, 587.76 214.98, 564.16 214.29 M564.16 214.29 C414.64 213.49, 266.94 213.15, 32 214.29 M564.16 214.29 C431.66 215.31, 298.87 215.61, 32 214.29 M32 214.29 C11.56 214.91, -1.44 203.98, 0 182.29 M32 214.29 C10.29 215.29, 1.89 204.45, 0 182.29 M0 182.29 C0.78 150.34, 0.31 121.91, 0 32 M0 182.29 C0.43 123.55, -1.05 63.76, 0 32 M0 32 C0.75 11.53, 10.79 0.26, 32 0 M0 32 C-2.04 11.79, 10.13 0.16, 32 0" stroke="#e03131" stroke-width="1" fill="none"></path></g><g transform="translate(3342.8486720760075 1090.4418338775931) rotate(0 214.3388671875 39.90929146554322)"><text x="0" y="64.22901595235852" font-family="Cascadia, Segoe UI Emoji" font-size="66.51548577590528px" fill="#e03131" text-anchor="start" style="white-space: pre;" direction="ltr" dominant-baseline="alphabetic">Main Server</text></g><g stroke-linecap="round" transform="translate(3280.3667365953906 1291.2208654717294) rotate(0 298.07984663280513 107.14676981222613)"><path d="M32 0 C237.04 -0.49, 441.62 -0.42, 564.16 0 M32 0 C192.58 2.26, 352.24 1.87, 564.16 0 M564.16 0 C585.82 1.32, 596.8 9.84, 596.16 32 M564.16 0 C585.31 -1.34, 594.14 8.76, 596.16 32 M596.16 32 C598.08 78.62, 595.12 126.8, 596.16 182.29 M596.16 32 C596.83 67.96, 596.82 102.69, 596.16 182.29 M596.16 182.29 C597.06 204.03, 584.1 213.18, 564.16 214.29 M596.16 182.29 C595.75 201.72, 587.13 214.39, 564.16 214.29 M564.16 214.29 C433.97 213.79, 305.32 214.28, 32 214.29 M564.16 214.29 C405.93 214.24, 247.01 214.59, 32 214.29 M32 214.29 C11.87 212.87, -0.77 202.75, 0 182.29 M32 214.29 C12.66 213.43, 1.11 205.68, 0 182.29 M0 182.29 C1.63 139.09, 1.43 94.56, 0 32 M0 182.29 C0.92 128.85, 0.54 73.65, 0 32 M0 32 C0.48 10.23, 12.32 1.1, 32 0 M0 32 C0.46 11.79, 12.45 2.12, 32 0" stroke="#e03131" stroke-width="1" fill="none"></path></g><g transform="translate(3347.8486720760075 1363.7751672109264) rotate(0 214.3388671875 39.909291465543106)"><text x="0" y="64.22901595235852" font-family="Cascadia, Segoe UI Emoji" font-size="66.51548577590528px" fill="#e03131" text-anchor="start" style="white-space: pre;" direction="ltr" dominant-baseline="alphabetic">Main Server</text></g><g stroke-linecap="round" transform="translate(3287.8667365953906 1547.054198805063) rotate(0 298.07984663280513 107.14676981222613)"><path d="M32 0 C207.91 0.13, 383.53 0.76, 564.16 0 M32 0 C216.66 -1.5, 400.76 -1.39, 564.16 0 M564.16 0 C586.35 -1.94, 595.22 8.94, 596.16 32 M564.16 0 C587.65 -1.52, 595.16 9.83, 596.16 32 M596.16 32 C596.41 71.04, 593.41 109.61, 596.16 182.29 M596.16 32 C594.73 62.45, 594.97 93.78, 596.16 182.29 M596.16 182.29 C595.93 202.64, 584.8 214.92, 564.16 214.29 M596.16 182.29 C595.26 202.59, 586.8 214.62, 564.16 214.29 M564.16 214.29 C409.41 214.29, 254.65 212.86, 32 214.29 M564.16 214.29 C429.46 214.57, 295.64 214.5, 32 214.29 M32 214.29 C12.15 214.3, 2 205.31, 0 182.29 M32 214.29 C10.19 216.42, 2.21 205.85, 0 182.29 M0 182.29 C0.05 134.74, 1.23 84.66, 0 32 M0 182.29 C1.49 138.1, 0.93 94.26, 0 32 M0 32 C0.47 9.84, 10.24 -1.75, 32 0 M0 32 C-2.15 12.54, 10.8 0.09, 32 0" stroke="#e03131" stroke-width="1" fill="none"></path></g><g transform="translate(3355.3486720760075 1619.6085005442596) rotate(0 214.3388671875 39.90929146554322)"><text x="0" y="64.22901595235852" font-family="Cascadia, Segoe UI Emoji" font-size="66.51548577590528px" fill="#e03131" text-anchor="start" style="white-space: pre;" direction="ltr" dominant-baseline="alphabetic">Main Server</text></g><g stroke-linecap="round"><g transform="translate(994.6717822051933 1057.7742879204748) rotate(0 78.64470283388437 -2.5571275171710113)"><path d="M1.19 0.12 C27.07 -0.71, 130.19 -4, 156.27 -5.05 M0.36 -0.86 C26.52 -1.47, 132.33 -2.73, 158.44 -3.48" stroke="#1e1e1e" stroke-width="1" fill="none"></path></g><g transform="translate(994.6717822051933 1057.7742879204748) rotate(0 78.64470283388437 -2.5571275171710113)"><path d="M135.12 5.52 C144.21 0.15, 153.01 -1, 158.44 -3.48 M135.12 5.52 C139.29 2.67, 145.36 1.96, 158.44 -3.48" stroke="#1e1e1e" stroke-width="1" fill="none"></path></g><g transform="translate(994.6717822051933 1057.7742879204748) rotate(0 78.64470283388437 -2.5571275171710113)"><path d="M134.79 -11.58 C144 -10.43, 152.92 -5.07, 158.44 -3.48 M134.79 -11.58 C139.06 -10.79, 145.2 -7.87, 158.44 -3.48" stroke="#1e1e1e" stroke-width="1" fill="none"></path></g></g><mask></mask><g stroke-linecap="round"><g transform="translate(4263.051122890804 629.5567484701844) rotate(0 0 496.221412558746)"><path d="M-0.28 0.13 C-0.28 165.44, 0.51 826.32, 0.67 991.86 M1.77 -0.85 C1.61 164.61, 0.33 827.69, 0.07 993.09" stroke="#1e1e1e" stroke-width="1" fill="none"></path></g></g><mask></mask><g stroke-linecap="round"><g transform="translate(3114.4507874070578 655.0391582984751) rotate(0 3.33333333333303 641.2214125587458)"><path d="M0.7 0.28 C1.52 214.1, 5.19 1068.84, 6.07 1282.73 M-0.38 -0.61 C0.73 212.84, 6.99 1067.01, 8.46 1280.77" stroke="#1e1e1e" stroke-width="1" fill="none"></path></g></g><mask></mask><g stroke-linecap="round"><g transform="translate(3104.4507874070578 644.9819834159675) rotate(0 77.04130792750038 0)"><path d="M0.78 0.03 C26.56 0.2, 129.15 -0.16, 154.54 0.01 M-0.27 -1 C25.41 -0.53, 127.87 1.5, 153.83 1.56" stroke="#1e1e1e" stroke-width="1" fill="none"></path></g><g transform="translate(3104.4507874070578 644.9819834159675) rotate(0 77.04130792750038 0)"><path d="M130.23 9.82 C137.14 8.04, 143.9 3.24, 153.83 1.56 M130.23 9.82 C139.85 7.48, 148.18 2.69, 153.83 1.56" stroke="#1e1e1e" stroke-width="1" fill="none"></path></g><g transform="translate(3104.4507874070578 644.9819834159675) rotate(0 77.04130792750038 0)"><path d="M130.44 -7.28 C137.14 -4.13, 143.84 -4.02, 153.83 1.56 M130.44 -7.28 C140.03 -2.93, 148.27 -1.05, 153.83 1.56" stroke="#1e1e1e" stroke-width="1" fill="none"></path></g></g><mask></mask><g stroke-linecap="round"><g transform="translate(4260.149114700563 631.7583686735315) rotate(0 -191.02257363313402 -1.2902008190242213)"><path d="M-0.09 -0.69 C-63.9 -1.26, -319.17 -2.46, -382.64 -2.82 M-1.6 1.57 C-65.03 1.12, -316.99 -0.86, -380.24 -1.41" stroke="#1e1e1e" stroke-width="1" fill="none"></path></g><g transform="translate(4260.149114700563 631.7583686735315) rotate(0 -191.02257363313402 -1.2902008190242213)"><path d="M-356.68 -9.77 C-365.28 -8.12, -372.04 -2.59, -380.24 -1.41 M-356.68 -9.77 C-363.73 -7.8, -369.33 -4.45, -380.24 -1.41" stroke="#1e1e1e" stroke-width="1" fill="none"></path></g><g transform="translate(4260.149114700563 631.7583686735315) rotate(0 -191.02257363313402 -1.2902008190242213)"><path d="M-356.82 7.33 C-365.46 3.54, -372.18 3.62, -380.24 -1.41 M-356.82 7.33 C-363.74 4.59, -369.3 3.24, -380.24 -1.41" stroke="#1e1e1e" stroke-width="1" fill="none"></path></g></g><mask></mask><g stroke-linecap="round"><g transform="translate(4267.568713062515 1632.6325976841304) rotate(0 -191.02257363313402 -1.2902008190242213)"><path d="M-0.14 -0.53 C-63.71 -0.91, -317.44 -2.78, -380.95 -3.28 M-1.67 1.81 C-65.35 1.65, -318.02 -1.36, -381.32 -2.11" stroke="#1e1e1e" stroke-width="1" fill="none"></path></g><g transform="translate(4267.568713062515 1632.6325976841304) rotate(0 -191.02257363313402 -1.2902008190242213)"><path d="M-357.73 -10.38 C-366.77 -5.74, -375.14 -3.26, -381.32 -2.11 M-357.73 -10.38 C-362.77 -8.39, -369.02 -7.29, -381.32 -2.11" stroke="#1e1e1e" stroke-width="1" fill="none"></path></g><g transform="translate(4267.568713062515 1632.6325976841304) rotate(0 -191.02257363313402 -1.2902008190242213)"><path d="M-357.93 6.72 C-366.77 5.49, -375.07 2.11, -381.32 -2.11 M-357.93 6.72 C-362.97 4.91, -369.18 2.21, -381.32 -2.11" stroke="#1e1e1e" stroke-width="1" fill="none"></path></g></g><mask></mask><g stroke-linecap="round"><g transform="translate(3106.473565629228 900.6689993143771) rotate(0 76.66036486351732 -0.34350794920487715)"><path d="M0.29 0.07 C25.67 0.23, 127.25 0.5, 152.78 0.49 M-1.01 -0.94 C24.12 -1.03, 125.91 -0.85, 151.55 -1.01" stroke="#1e1e1e" stroke-width="1" fill="none"></path></g><g transform="translate(3106.473565629228 900.6689993143771) rotate(0 76.66036486351732 -0.34350794920487715)"><path d="M128.07 7.58 C136.23 3.69, 146.1 1.94, 151.55 -1.01 M128.07 7.58 C135.65 4.6, 145.34 1.07, 151.55 -1.01" stroke="#1e1e1e" stroke-width="1" fill="none"></path></g><g transform="translate(3106.473565629228 900.6689993143771) rotate(0 76.66036486351732 -0.34350794920487715)"><path d="M128.04 -9.52 C136.14 -7.57, 146.02 -3.49, 151.55 -1.01 M128.04 -9.52 C135.76 -6.34, 145.46 -3.72, 151.55 -1.01" stroke="#1e1e1e" stroke-width="1" fill="none"></path></g></g><mask></mask><g stroke-linecap="round"><g transform="translate(3104.4507874070578 1139.9819834159673) rotate(0 82.5 0)"><path d="M0.91 0.07 C28.34 -0.01, 136.67 -1.05, 163.94 -0.86 M-0.07 -0.94 C27.77 -0.85, 138.84 0.16, 166.09 0.22" stroke="#1e1e1e" stroke-width="1" fill="none"></path></g><g transform="translate(3104.4507874070578 1139.9819834159673) rotate(0 82.5 0)"><path d="M142.55 8.63 C148.53 4.6, 152.81 3.45, 166.09 0.22 M142.55 8.63 C151.36 5.36, 161.18 1.87, 166.09 0.22" stroke="#1e1e1e" stroke-width="1" fill="none"></path></g><g transform="translate(3104.4507874070578 1139.9819834159673) rotate(0 82.5 0)"><path d="M142.66 -8.47 C148.55 -8.27, 152.8 -5.17, 166.09 0.22 M142.66 -8.47 C151.58 -4.95, 161.35 -1.65, 166.09 0.22" stroke="#1e1e1e" stroke-width="1" fill="none"></path></g></g><mask></mask><g stroke-linecap="round"><g transform="translate(3109.4507874070578 1404.9819834159673) rotate(0 82.5 0)"><path d="M-1.11 -0.42 C26.09 -0.53, 136.18 -0.15, 164.03 -0.21 M0.5 -1.68 C28 -1.66, 138.7 0.91, 166.24 1.21" stroke="#1e1e1e" stroke-width="1" fill="none"></path></g><g transform="translate(3109.4507874070578 1404.9819834159673) rotate(0 82.5 0)"><path d="M142.6 9.35 C150.6 4.95, 159.68 5.18, 166.24 1.21 M142.6 9.35 C147.19 8.11, 152.8 5.22, 166.24 1.21" stroke="#1e1e1e" stroke-width="1" fill="none"></path></g><g transform="translate(3109.4507874070578 1404.9819834159673) rotate(0 82.5 0)"><path d="M142.9 -7.75 C150.86 -5.83, 159.83 0.71, 166.24 1.21 M142.9 -7.75 C147.48 -4.98, 153.03 -3.87, 166.24 1.21" stroke="#1e1e1e" stroke-width="1" fill="none"></path></g></g><mask></mask><g stroke-linecap="round"><g transform="translate(3106.9507874070578 1634.981983415967) rotate(0 82.5 0)"><path d="M0.79 -0.6 C28.18 -0.49, 136.62 0.19, 164.09 0.27 M-0.25 1.69 C27.54 1.46, 138.75 -1.62, 166.32 -1.71" stroke="#1e1e1e" stroke-width="1" fill="none"></path></g><g transform="translate(3106.9507874070578 1634.981983415967) rotate(0 82.5 0)"><path d="M142.97 7.24 C148.46 3.08, 156.38 3.13, 166.32 -1.71 M142.97 7.24 C149.55 4.32, 155.55 2.98, 166.32 -1.71" stroke="#1e1e1e" stroke-width="1" fill="none"></path></g><g transform="translate(3106.9507874070578 1634.981983415967) rotate(0 82.5 0)"><path d="M142.68 -9.86 C148.19 -9.29, 156.19 -4.5, 166.32 -1.71 M142.68 -9.86 C149.41 -7.82, 155.49 -4.21, 166.32 -1.71" stroke="#1e1e1e" stroke-width="1" fill="none"></path></g></g><mask></mask><g stroke-linecap="round"><g transform="translate(3120.2841207403917 1934.981983415967) rotate(0 82.5 0)"><path d="M0.69 -0.96 C28.03 -1.08, 137.32 -0.31, 164.67 -0.13 M-0.4 1.15 C26.69 1.18, 136.16 1.29, 163.55 1.34" stroke="#1e1e1e" stroke-width="1" fill="none"></path></g><g transform="translate(3120.2841207403917 1934.981983415967) rotate(0 82.5 0)"><path d="M140.05 9.86 C146.77 6.14, 156.54 3.33, 163.55 1.34 M140.05 9.86 C147.23 7.66, 155.34 5.58, 163.55 1.34" stroke="#1e1e1e" stroke-width="1" fill="none"></path></g><g transform="translate(3120.2841207403917 1934.981983415967) rotate(0 82.5 0)"><path d="M140.07 -7.24 C146.87 -4.87, 156.62 -1.59, 163.55 1.34 M140.07 -7.24 C147.16 -4.18, 155.26 -0.99, 163.55 1.34" stroke="#1e1e1e" stroke-width="1" fill="none"></path></g></g><mask></mask><g mask="url(#mask-Z-j4kn3tCmv2M_atAaFN6)" stroke-linecap="round"><g transform="translate(1498.4390487273058 1200.259842462974) rotate(0 278.7997802020209 250.36320636839343)"><path d="M-0.8 0.04 C26.45 57.28, 69.56 260.59, 162.61 344.06 C255.67 427.52, 491.86 474.72, 557.52 500.82 M0.98 -0.99 C28.7 56.38, 72.35 261.58, 164.97 345.44 C257.6 429.31, 491.49 476.15, 556.72 502.18" stroke="#1e1e1e" stroke-width="1" fill="none"></path></g><g transform="translate(1498.4390487273058 1200.259842462974) rotate(0 278.7997802020209 250.36320636839343)"><path d="M531.75 503.45 C537.47 502.21, 542.59 502.91, 556.72 502.18 M531.75 503.45 C538.83 503.97, 547.7 502.13, 556.72 502.18" stroke="#1e1e1e" stroke-width="1" fill="none"></path></g><g transform="translate(1498.4390487273058 1200.259842462974) rotate(0 278.7997802020209 250.36320636839343)"><path d="M536.78 487.1 C541.44 489.53, 545.42 493.94, 556.72 502.18 M536.78 487.1 C542.18 492.64, 549.5 495.83, 556.72 502.18" stroke="#1e1e1e" stroke-width="1" fill="none"></path></g></g><mask id="mask-Z-j4kn3tCmv2M_atAaFN6"><rect x="0" y="0" fill="#fff" width="2156.0386091313476" height="1800.9862551997608"></rect><rect x="1524.6165620642732" y="1522.999515606976" fill="#000" width="274.21875" height="43.199999999999996" opacity="1"></rect></mask><g transform="translate(1524.6165620642741 1522.9995156069763) rotate(0 252.1841169404761 -72.14141439509342)"><text x="137.109375" y="34.762499999999996" font-family="Cascadia, Segoe UI Emoji" font-size="36px" fill="#1e1e1e" text-anchor="middle" style="white-space: pre;" direction="ltr" dominant-baseline="alphabetic">Keeps Polling</text></g><g transform="translate(4384.26272989779 490.9621798691451) rotate(0 318.5009765625 38.37261064731479)"><text x="0" y="61.755920260522274" font-family="Cascadia, Segoe UI Emoji" font-size="63.95435107885801px" fill="#1e1e1e" text-anchor="start" style="white-space: pre;" direction="ltr" dominant-baseline="alphabetic">Computes the code</text></g><g stroke-linecap="round"><g transform="translate(4724.351225514997 573.1000373995419) rotate(0 -226.11743472452144 298.2438827011407)"><path d="M0.67 0.94 C-21.48 59.34, -58.11 250.92, -133.78 350.35 C-209.45 449.78, -400.36 556.69, -453.34 597.52 M-0.43 0.39 C-22.61 58.94, -59.23 252.37, -134.33 351.59 C-209.43 450.81, -398.23 555.02, -451.02 595.72" stroke="#1e1e1e" stroke-width="1" fill="none"></path></g><g transform="translate(4724.351225514997 573.1000373995419) rotate(0 -226.11743472452144 298.2438827011407)"><path d="M-436.27 575.54 C-438.1 581.54, -444.03 583.09, -451.02 595.72 M-436.27 575.54 C-441.55 583.11, -446.82 590.24, -451.02 595.72" stroke="#1e1e1e" stroke-width="1" fill="none"></path></g><g transform="translate(4724.351225514997 573.1000373995419) rotate(0 -226.11743472452144 298.2438827011407)"><path d="M-426.75 589.75 C-430.77 592.52, -438.89 590.8, -451.02 595.72 M-426.75 589.75 C-435.78 591.74, -444.72 593.38, -451.02 595.72" stroke="#1e1e1e" stroke-width="1" fill="none"></path></g></g><mask></mask><g mask="url(#mask-Ljd7m2jx4a-R9DQ6vYX-q)" stroke-linecap="round"><g transform="translate(767.7772475751653 1184.0978437530346) rotate(0 327.86256013767115 95.47526142865343)"><path d="M0.33 0.88 C25.35 32.46, 41.32 189.18, 150.61 190.18 C259.91 191.17, 571.85 37.7, 656.12 6.84 M-0.96 0.29 C24.39 31.95, 43.36 190.5, 152.78 191.31 C262.2 192.11, 571.57 36.05, 655.55 5.12" stroke="#1e1e1e" stroke-width="1" fill="none"></path></g><g transform="translate(767.7772475751653 1184.0978437530346) rotate(0 327.86256013767115 95.47526142865343)"><path d="M637.38 22.29 C644.91 14.69, 648.31 11.25, 655.55 5.12 M637.38 22.29 C643.78 15.25, 651.86 8.37, 655.55 5.12" stroke="#1e1e1e" stroke-width="1" fill="none"></path></g><g transform="translate(767.7772475751653 1184.0978437530346) rotate(0 327.86256013767115 95.47526142865343)"><path d="M630.6 6.6 C640.51 4.29, 646.22 6.18, 655.55 5.12 M630.6 6.6 C639.76 5.85, 650.55 5.24, 655.55 5.12" stroke="#1e1e1e" stroke-width="1" fill="none"></path></g></g><mask id="mask-Ljd7m2jx4a-R9DQ6vYX-q"><rect x="0" y="0" fill="#fff" width="1523.5023678505077" height="1475.0483666103414"></rect><rect x="697.9489702751762" y="1353.4483666103413" fill="#000" width="442.96875" height="43.199999999999996" opacity="1"></rect></mask><g transform="translate(697.9489702751762 1353.4483666103415) rotate(0 397.40660636751545 -73.54933329978974)"><text x="221.484375" y="34.762499999999996" font-family="Cascadia, Segoe UI Emoji" font-size="36px" fill="#1e1e1e" text-anchor="middle" style="white-space: pre;" direction="ltr" dominant-baseline="alphabetic">login, code execution</text></g><g transform="translate(1448.9206685598865 10) rotate(0 1322.5693359375 73.20803276096876)"><text x="0" y="117.81917772468405" font-family="Cascadia, Segoe UI Emoji" font-size="122.01338793494789px" fill="#1e1e1e" text-anchor="start" style="white-space: pre;" direction="ltr" dominant-baseline="alphabetic">leetcode Clone Architecture by Pulkit</text></g><g stroke-linecap="round" transform="translate(4567.159011601511 1089.452286974658) rotate(0 580.7018764273444 430.6253334995406)"><path d="M32 0 C301.08 -4.61, 570.96 -3.74, 1129.4 0 M32 0 C274.04 1.14, 515.58 1.31, 1129.4 0 M1129.4 0 C1148.8 0.8, 1160.79 10.78, 1161.4 32 M1129.4 0 C1151.51 -1.37, 1162.4 8.83, 1161.4 32 M1161.4 32 C1158.09 192.97, 1158 353.45, 1161.4 829.25 M1161.4 32 C1162.88 293.04, 1162.97 554.58, 1161.4 829.25 M1161.4 829.25 C1162.56 849.62, 1151.8 860.09, 1129.4 861.25 M1161.4 829.25 C1159.19 848.53, 1149.79 861.54, 1129.4 861.25 M1129.4 861.25 C733.7 858.75, 338.78 858.91, 32 861.25 M1129.4 861.25 C725.47 860.77, 320.75 860.96, 32 861.25 M32 861.25 C11.96 860.27, 0.22 849.41, 0 829.25 M32 861.25 C11.9 861.91, 1.28 849.1, 0 829.25 M0 829.25 C-0.32 660.25, -0.6 491.96, 0 32 M0 829.25 C1.64 596.8, 1.14 363.92, 0 32 M0 32 C0.87 11.5, 10.14 0.55, 32 0 M0 32 C1.43 8.41, 10.66 0.94, 32 0" stroke="#1971c2" stroke-width="1" fill="none"></path></g><g transform="translate(4665.184404374856 1143.0327843937107) rotate(0 469.0546875 45.74450140237593)"><text x="0" y="73.6200569444487" font-family="Cascadia, Segoe UI Emoji" font-size="76.2408356706265px" fill="#1971c2" text-anchor="start" style="white-space: pre;" direction="ltr" dominant-baseline="alphabetic">Tech Stack:high level</text></g><g transform="translate(4595.638417319481 1411.3105279198826) rotate(0 553.974609375 137.53084173903062)"><text x="0" y="55.33467460593811" font-family="Cascadia, Segoe UI Emoji" font-size="57.30451739126277px" fill="#1971c2" text-anchor="start" style="white-space: pre;" direction="ltr" dominant-baseline="alphabetic">- Frontend: React, tailwind</text><text x="0" y="124.10009547545343" font-family="Cascadia, Segoe UI Emoji" font-size="57.30451739126277px" fill="#1971c2" text-anchor="start" style="white-space: pre;" direction="ltr" dominant-baseline="alphabetic">- Backend: Express, Redis</text><text x="0" y="192.86551634496877" font-family="Cascadia, Segoe UI Emoji" font-size="57.30451739126277px" fill="#1971c2" text-anchor="start" style="white-space: pre;" direction="ltr" dominant-baseline="alphabetic">- Auth: JWT for tokens and verify</text><text x="0" y="261.6309372144841" font-family="Cascadia, Segoe UI Emoji" font-size="57.30451739126277px" fill="#1971c2" text-anchor="start" style="white-space: pre;" direction="ltr" dominant-baseline="alphabetic">- Code Execution: AWS Lambda</text></g><g stroke-linecap="round" transform="translate(2034.8163869091222 869.0237365167075) rotate(0 388.3333333333335 76.66666666666663)"><path d="M32 0 C306.93 -0.38, 579.16 -0.46, 744.67 0 C764.88 0.71, 775.25 10.07, 776.67 32 C774.72 53.94, 777.25 79.45, 776.67 121.33 C777.41 140.35, 764.59 152.24, 744.67 153.33 C506.45 155.26, 267.38 157.21, 32 153.33 C9.61 154.13, 0.26 145.44, 0 121.33 C4.64 92.46, -0.98 63.24, 0 32 C1.76 7.73, 10.46 -0.27, 32 0" stroke="none" stroke-width="0" fill="#ffffff"></path><path d="M32 0 C310.81 -0.37, 589.2 -0.45, 744.67 0 M32 0 C283.96 -2.58, 535.11 -2.6, 744.67 0 M744.67 0 C766.56 -0.08, 777.48 11.32, 776.67 32 M744.67 0 C766.48 0.53, 778.54 9.01, 776.67 32 M776.67 32 C778.52 57.98, 779.07 84.49, 776.67 121.33 M776.67 32 C777.28 60.69, 775.88 88.98, 776.67 121.33 M776.67 121.33 C777.82 142.22, 767.54 153.6, 744.67 153.33 M776.67 121.33 C777.65 143.58, 765.31 153.27, 744.67 153.33 M744.67 153.33 C482.12 152.25, 220.58 152.09, 32 153.33 M744.67 153.33 C504.95 155.79, 265.98 155.18, 32 153.33 M32 153.33 C10.57 153.52, 1.66 143.23, 0 121.33 M32 153.33 C10.22 155.29, -1.91 142.38, 0 121.33 M0 121.33 C-2.38 91.69, 0.48 60.03, 0 32 M0 121.33 C0 88.21, 0.02 56.53, 0 32 M0 32 C-1.89 12.62, 11.39 0.1, 32 0 M0 32 C-0.91 9.97, 11.47 -1.07, 32 0" stroke="#e03131" stroke-width="1" fill="none"></path></g><g stroke-linecap="round"><g transform="translate(2182.5941646869005 870.1348476278183) rotate(0 1.666666666666515 76.11111111111109)"><path d="M0 0.26 C0.47 25.86, 2.66 127.58, 3.08 152.97 M-1.46 -0.65 C-1.2 24.67, 0.93 126.06, 2 151.25" stroke="#e03131" stroke-width="1" fill="none"></path></g></g><mask></mask><g stroke-linecap="round"><g transform="translate(2361.483053575789 870.1348476278183) rotate(0 1.666666666666515 76.11111111111109)"><path d="M0.08 -0.89 C0.41 24.13, 2.47 125.63, 3.01 151.19 M-1.33 1.25 C-1.28 26.91, 1.25 126.75, 1.9 152.18" stroke="#e03131" stroke-width="1" fill="none"></path></g></g><mask></mask><g stroke-linecap="round"><g transform="translate(2531.483053575789 869.0237365167075) rotate(0 1.6666666666660603 76.11111111111109)"><path d="M-0.26 -0.08 C0.45 25.16, 3.61 125.94, 4.08 151.45 M1.8 -1.17 C2.44 24.21, 2.99 127.21, 3.52 152.59" stroke="#e03131" stroke-width="1" fill="none"></path></g></g><mask></mask><g stroke-linecap="round"><g transform="translate(2683.705275798012 870.1348476278185) rotate(0 1.6666666666660603 76.11111111111109)"><path d="M1.05 -0.5 C1.59 24.82, 3.86 126.72, 4.23 152.09 M0.14 -1.81 C0.51 23.69, 3.36 127.79, 3.76 153.56" stroke="#e03131" stroke-width="1" fill="none"></path></g></g><mask></mask><g stroke-linecap="round" transform="translate(2051.483053575789 1132.357069850041) rotate(0 388.33333333333303 76.66666666666663)"><path d="M32 0 C201.45 0.27, 370.43 3.01, 744.67 0 C764.68 3.12, 774.17 9.82, 776.67 32 C776.49 55.71, 774.24 84.12, 776.67 121.33 C780.08 143.2, 762.56 154.12, 744.67 153.33 C459.98 156.09, 176.06 156.5, 32 153.33 C12.49 154, 1.97 141.41, 0 121.33 C-1.14 90.61, -2.66 65.43, 0 32 C-2.87 10.11, 10.71 1.24, 32 0" stroke="none" stroke-width="0" fill="#ffffff"></path><path d="M32 0 C176.12 -1.42, 321.88 -1.87, 744.67 0 M32 0 C243.92 -2.86, 455.43 -2.63, 744.67 0 M744.67 0 C764.24 -0.38, 777.55 10.75, 776.67 32 M744.67 0 C764.04 0.97, 778.09 10.18, 776.67 32 M776.67 32 C776.7 62.33, 777.17 92.61, 776.67 121.33 M776.67 32 C775.11 67.31, 776.36 102.39, 776.67 121.33 M776.67 121.33 C776.33 143.65, 764.24 152.45, 744.67 153.33 M776.67 121.33 C776.34 141.31, 765.02 154.24, 744.67 153.33 M744.67 153.33 C588.64 155, 434.18 155.11, 32 153.33 M744.67 153.33 C599.43 151.67, 454.59 151.84, 32 153.33 M32 153.33 C11.23 153.27, 0.86 144.18, 0 121.33 M32 153.33 C8.49 151.54, 2.05 140.7, 0 121.33 M0 121.33 C-0.75 99.4, -0.43 81.33, 0 32 M0 121.33 C0.43 102, -1.1 82.84, 0 32 M0 32 C1.45 9.74, 10.05 0.54, 32 0 M0 32 C1.86 8.66, 8.62 -1.65, 32 0" stroke="#e03131" stroke-width="1" fill="none"></path></g><g stroke-linecap="round"><g transform="translate(2199.2608313535675 1133.4681809611518) rotate(0 1.666666666666515 76.11111111111109)"><path d="M-1.15 0.19 C-0.76 25.37, 2.76 126.44, 3.5 151.74 M0.45 -0.75 C0.6 24.53, 2.3 127.36, 2.64 153.03" stroke="#e03131" stroke-width="1" fill="none"></path></g></g><mask></mask><g stroke-linecap="round"><g transform="translate(2378.149720242456 1133.4681809611518) rotate(0 1.666666666666515 76.11111111111109)"><path d="M0.19 0.17 C0.56 25.72, 2.36 126.65, 2.86 152.19 M-1.17 -0.79 C-1.06 25.07, 1.08 128.3, 1.66 153.7" stroke="#e03131" stroke-width="1" fill="none"></path></g></g><mask></mask><g stroke-linecap="round"><g transform="translate(2548.149720242457 1132.357069850041) rotate(0 1.6666666666660603 76.11111111111109)"><path d="M0.17 -0.48 C0.91 24.83, 2.58 126.45, 3.3 152.05 M-1.2 -1.77 C-0.52 23.71, 1.41 128, 2.33 153.5" stroke="#e03131" stroke-width="1" fill="none"></path></g></g><mask></mask><g stroke-linecap="round"><g transform="translate(2700.3719424646797 1133.468180961152) rotate(0 1.6666666666660603 76.11111111111109)"><path d="M-0.48 -0.04 C0.02 25.5, 2.38 128.06, 3.16 153.37 M1.47 -1.1 C1.78 24.11, 1.72 126.18, 2.12 151.84" stroke="#e03131" stroke-width="1" fill="none"></path></g></g><mask></mask><g transform="translate(2063.7052757980136 1664.5735142944854) rotate(0 351.84375 40.031999999999925)"><text x="0" y="64.42650000000003" font-family="Cascadia, Segoe UI Emoji" font-size="66.72000000000004px" fill="#e03131" text-anchor="start" style="white-space: pre;" direction="ltr" dominant-baseline="alphabetic">Redis Queue Server</text></g><g stroke-linecap="round"><g transform="translate(3599.249238653795 1761.7524958321796) rotate(0 0 9.210478781500342)"><path d="M-0.4 0.46 C-0.24 3.45, 0.41 15.02, 0.53 17.97 M0.4 0.22 C0.57 3.27, 0.42 15.37, 0.37 18.44" stroke="#1e1e1e" stroke-width="1" fill="none"></path></g></g><mask></mask><g stroke-linecap="round"><g transform="translate(3599.249238653795 1794.9102194455809) rotate(0 0.46052393907575606 7.368383025200046)"><path d="M0.45 -0.02 C0.6 2.41, 0.75 12.19, 0.76 14.6 M0.02 -0.51 C0.09 2, -0.02 12.66, 0.25 15.23" stroke="#1e1e1e" stroke-width="1" fill="none"></path></g></g><mask></mask><g stroke-linecap="round"><g transform="translate(3601.0913344100964 1833.1337063888068) rotate(0 -0.23026196953742328 11.282836507337834)"><path d="M0.27 0.22 C0.26 3.89, 0.23 18.75, 0.04 22.4 M-0.26 -0.14 C-0.3 3.57, -0.22 19.24, -0.14 23.01" stroke="#1e1e1e" stroke-width="1" fill="none"></path></g></g><mask></mask><g stroke-linecap="round"><g transform="translate(3602.9334301663957 1883.3308157479833) rotate(0 0.6907859086122698 11.052574537800183)"><path d="M-0.02 0.06 C0.14 3.73, 0.87 18.65, 1.19 22.41 M-0.7 -0.39 C-0.65 3.09, 0.25 17.9, 0.67 21.6" stroke="#1e1e1e" stroke-width="1" fill="none"></path></g></g><mask></mask><g stroke-linecap="round"><g transform="translate(3607.764938364765 1928.4216410810873) rotate(0 1.8020822339440201 22.52602792430025)"><path d="M0.21 -0.15 C0.71 7.24, 2.58 37.16, 3.11 44.66 M-0.34 -0.7 C0.3 6.72, 3.55 37.49, 4.09 45.16" stroke="#1e1e1e" stroke-width="1" fill="none"></path></g></g><mask></mask><g stroke-linecap="round" transform="translate(10 808.9274021704955) rotate(0 235 143.57142857142867)"><path d="M32 0 C179.79 -4.14, 323.79 -1.09, 438 0 C462.89 3.53, 470.13 11.09, 470 32 C469.45 85.51, 466.87 135.09, 470 255.14 C466.64 277.7, 458.52 284.12, 438 287.14 C284.27 282.5, 127.89 285.54, 32 287.14 C11.05 286.39, 1.6 277.54, 0 255.14 C-4.16 201.36, 0.1 148.01, 0 32 C2.95 10.97, 13.08 0.33, 32 0" stroke="none" stroke-width="0" fill="#ffffff"></path><path d="M32 0 C182.84 -0.53, 332.62 -0.69, 438 0 M32 0 C154.79 -1.95, 276.6 -1.6, 438 0 M438 0 C459.21 -0.34, 468.1 11.27, 470 32 M438 0 C461.33 1.25, 471.67 8.95, 470 32 M470 32 C469.69 90.45, 472.09 144.43, 470 255.14 M470 32 C467.98 90.08, 468.75 147.08, 470 255.14 M470 255.14 C469.36 277.99, 458.95 285.3, 438 287.14 M470 255.14 C469.67 277.84, 460.34 288, 438 287.14 M438 287.14 C278.95 285.34, 119.65 284.85, 32 287.14 M438 287.14 C313.57 286.7, 187.99 286.78, 32 287.14 M32 287.14 C10.08 285.53, 0.59 274.5, 0 255.14 M32 287.14 C9.19 285.59, -0.35 275.38, 0 255.14 M0 255.14 C-0.59 173.42, -1.31 91.93, 0 32 M0 255.14 C2.43 168.95, 2.32 83.89, 0 32 M0 32 C1.93 11.06, 11.96 0.74, 32 0 M0 32 C0.89 9.58, 11.9 -1.58, 32 0" stroke="#2f9e44" stroke-width="1" fill="none"></path></g><g stroke-linecap="round" transform="translate(10.952380952381645 1112.7369259800194) rotate(0 235 143.57142857142867)"><path d="M32 0 C132.43 2.85, 232.85 -0.27, 438 0 C459.75 -2.17, 472.03 8.36, 470 32 C470.22 86.36, 465.35 140.59, 470 255.14 C471 273.83, 460.44 285.73, 438 287.14 C352.17 284.87, 271.06 288.42, 32 287.14 C13.01 284.91, 0.48 276.74, 0 255.14 C-4.9 178.15, 0.32 108.79, 0 32 C0.05 10.25, 7.33 1.14, 32 0" stroke="none" stroke-width="0" fill="#ffffff"></path><path d="M32 0 C182.74 0.19, 335.73 1.33, 438 0 M32 0 C179.6 -0.14, 326.35 -0.79, 438 0 M438 0 C459.55 -1.73, 470.99 12.38, 470 32 M438 0 C460.28 1.61, 472.21 11.29, 470 32 M470 32 C471.31 98.25, 468.73 163.04, 470 255.14 M470 32 C468.83 94.09, 468.7 157.76, 470 255.14 M470 255.14 C469.38 278.4, 458.75 288.22, 438 287.14 M470 255.14 C468.24 274.65, 459.73 286.23, 438 287.14 M438 287.14 C277 288.17, 115.54 287.74, 32 287.14 M438 287.14 C297.19 287.92, 155.32 288.1, 32 287.14 M32 287.14 C12.23 286.55, 0.36 276.79, 0 255.14 M32 287.14 C10.08 285.46, 0.33 275.92, 0 255.14 M0 255.14 C-0.28 180.92, 1.1 103.22, 0 32 M0 255.14 C0.92 169.66, 0.67 83.97, 0 32 M0 32 C0.42 11.64, 12.43 -0.41, 32 0 M0 32 C0.89 9.74, 10.85 -0.51, 32 0" stroke="#2f9e44" stroke-width="1" fill="none"></path></g><g transform="translate(212.06953892668025 977.1216878847813) rotate(0 14.47265625 29.645714285714348)"><text x="0" y="47.71107142857148" font-family="Cascadia, Segoe UI Emoji" font-size="49.40952380952386px" fill="#2f9e44" text-anchor="start" style="white-space: pre;" direction="ltr" dominant-baseline="alphabetic">/</text></g><g transform="translate(206.35525321239584 1280.9312116943051) rotate(0 57.890625 29.645714285714348)"><text x="0" y="47.71107142857148" font-family="Cascadia, Segoe UI Emoji" font-size="49.40952380952386px" fill="#2f9e44" text-anchor="start" style="white-space: pre;" direction="ltr" dominant-baseline="alphabetic">/:id</text></g><g transform="translate(75.23809523809359 898.6938723141081) rotate(0 173.671875 29.645714285714348)"><text x="0" y="47.71107142857148" font-family="Cascadia, Segoe UI Emoji" font-size="49.40952380952386px" fill="#2f9e44" text-anchor="start" style="white-space: pre;" direction="ltr" dominant-baseline="alphabetic">All Problems</text></g><g transform="translate(151.30952380952294 1200.003396123632) rotate(0 101.30859375 29.645714285714348)"><text x="0" y="47.71107142857148" font-family="Cascadia, Segoe UI Emoji" font-size="49.40952380952386px" fill="#2f9e44" text-anchor="start" style="white-space: pre;" direction="ltr" dominant-baseline="alphabetic">Problem</text></g><g transform="translate(2196.0714285714257 1310.1178783609712) rotate(0 238.79296875000045 34.933333333333394)"><text x="0" y="56.22083333333349" font-family="Cascadia, Segoe UI Emoji" font-size="58.222222222222385px" fill="#1e1e1e" text-anchor="start" style="white-space: pre;" direction="ltr" dominant-baseline="alphabetic">Problems Queue</text></g><g transform="translate(2192.7380952380927 760.1178783609719) rotate(0 255.849609375 34.933333333333394)"><text x="0" y="56.22083333333349" font-family="Cascadia, Segoe UI Emoji" font-size="58.222222222222385px" fill="#1e1e1e" text-anchor="start" style="white-space: pre;" direction="ltr" dominant-baseline="alphabetic">Solutions Queue</text></g><g stroke-linecap="round"><g transform="translate(2069.4047619047606 1776.7845450276377) rotate(0 351.66666666666697 -3.3333333333332575)"><path d="M0.95 -0.42 C118.38 -1.43, 586.67 -5.68, 703.69 -6.73 M-0.01 -1.69 C117.38 -2.44, 585.9 -4.6, 702.93 -5.23" stroke="#e03131" stroke-width="1" fill="none"></path></g></g><mask></mask><g stroke-linecap="round"><g transform="translate(2252.7380952380927 1650.1178783609716) rotate(0 60.65913090754293 -125.00000000000023)"><path d="M-0.12 -0.78 C-3.89 -22.05, -46.6 -85.89, -22.46 -127.34 C1.68 -168.8, 116.71 -229.2, 144.72 -249.52 M-1.64 1.43 C-5.51 -19.72, -47.22 -83.99, -22.95 -126.16 C1.33 -168.34, 115.77 -230.73, 143.99 -251.62" stroke="#1e1e1e" stroke-width="1" fill="none"></path></g><g transform="translate(2252.7380952380927 1650.1178783609716) rotate(0 60.65913090754293 -125.00000000000023)"><path d="M128.89 -231.7 C132.34 -236.54, 137.3 -244.21, 143.99 -251.62 M128.89 -231.7 C134.81 -238.25, 138.13 -246.22, 143.99 -251.62" stroke="#1e1e1e" stroke-width="1" fill="none"></path></g><g transform="translate(2252.7380952380927 1650.1178783609716) rotate(0 60.65913090754293 -125.00000000000023)"><path d="M119.62 -246.06 C126.04 -246.34, 133.95 -249.45, 143.99 -251.62 M119.62 -246.06 C128.8 -247.79, 135.27 -250.88, 143.99 -251.62" stroke="#1e1e1e" stroke-width="1" fill="none"></path></g></g><mask></mask><g stroke-linecap="round"><g transform="translate(2147.7987764869067 1676.7845450276377) rotate(0 -124.20509525671696 -433.3333333335315)"><path d="M-0.86 0.81 C-45.13 -115.6, -268.04 -554.44, -265.23 -699.02 C-262.43 -843.6, -30.91 -838.67, 15.98 -866.69 M0.89 0.19 C-43.62 -116.49, -268.84 -556.37, -266.48 -700.63 C-264.11 -844.89, -32.05 -837.77, 15.06 -865.38" stroke="#1e1e1e" stroke-width="1" fill="none"></path></g><g transform="translate(2147.7987764869067 1676.7845450276377) rotate(0 -124.20509525671696 -433.3333333335315)"><path d="M-5.62 -851.34 C2.67 -856.8, 9.83 -861, 15.06 -865.38 M-5.62 -851.34 C0.74 -855.43, 5.93 -859.5, 15.06 -865.38" stroke="#1e1e1e" stroke-width="1" fill="none"></path></g><g transform="translate(2147.7987764869067 1676.7845450276377) rotate(0 -124.20509525671696 -433.3333333335315)"><path d="M-9.81 -867.92 C-0.21 -867.84, 8.34 -866.52, 15.06 -865.38 M-9.81 -867.92 C-2.23 -867.05, 4.22 -866.17, 15.06 -865.38" stroke="#1e1e1e" stroke-width="1" fill="none"></path></g></g><mask></mask><g stroke-linecap="round"><g transform="translate(2838.2621557248704 1315.0942176577785) rotate(0 130.5713030899451 -46.6430059634738)"><path d="M-1.14 -0.54 C25.67 0.76, 116.82 25.64, 160.55 8.82 C204.27 -7.99, 244.58 -83.03, 261.2 -101.43 M0.47 1.79 C27.7 3.24, 119.61 23.91, 162.94 6.94 C206.28 -10.02, 244.28 -82.1, 260.47 -100" stroke="#1e1e1e" stroke-width="1" fill="none"></path></g><g transform="translate(2838.2621557248704 1315.0942176577785) rotate(0 130.5713030899451 -46.6430059634738)"><path d="M253.68 -75.94 C254.43 -83.46, 257.96 -88.95, 260.47 -100 M253.68 -75.94 C255.03 -82.72, 257.99 -90.48, 260.47 -100" stroke="#1e1e1e" stroke-width="1" fill="none"></path></g><g transform="translate(2838.2621557248704 1315.0942176577785) rotate(0 130.5713030899451 -46.6430059634738)"><path d="M239.8 -85.94 C244.43 -90.59, 251.76 -93.34, 260.47 -100 M239.8 -85.94 C245.49 -89.55, 252.85 -94.13, 260.47 -100" stroke="#1e1e1e" stroke-width="1" fill="none"></path></g></g><mask></mask><g stroke-linecap="round"><g transform="translate(3079.4047619047587 873.4512116943044) rotate(0 -179.9999999999991 -55)"><path d="M-0.88 -0.78 C-36.97 -18.92, -156.13 -96.42, -215.84 -109.54 C-275.55 -122.65, -335.27 -84.27, -359.13 -79.47 M0.86 1.43 C-35.38 -17.02, -156.3 -97.59, -216.35 -111.42 C-276.41 -125.24, -335.79 -86.76, -359.44 -81.54" stroke="#1e1e1e" stroke-width="1" fill="none"></path></g><g transform="translate(3079.4047619047587 873.4512116943044) rotate(0 -179.9999999999991 -55)"><path d="M-340.51 -97.86 C-348.68 -90.77, -353.4 -84.85, -359.44 -81.54 M-340.51 -97.86 C-347.4 -91.88, -353.79 -86.49, -359.44 -81.54" stroke="#1e1e1e" stroke-width="1" fill="none"></path></g><g transform="translate(3079.4047619047587 873.4512116943044) rotate(0 -179.9999999999991 -55)"><path d="M-334.44 -81.87 C-344.7 -80.56, -351.6 -80.37, -359.44 -81.54 M-334.44 -81.87 C-343.56 -81.43, -352.03 -81.54, -359.44 -81.54" stroke="#1e1e1e" stroke-width="1" fill="none"></path></g></g><mask></mask><g stroke-linecap="round"><g transform="translate(2129.4047619047606 763.4512116943047) rotate(0 -318.0237607951758 83.33333333333337)"><path d="M0.64 -0.9 C-81.15 0.53, -384.43 -18.83, -490.65 8.9 C-596.86 36.63, -612.36 139.32, -636.66 165.48 M-0.48 1.24 C-81.89 2.75, -382.06 -17.63, -488.27 9.86 C-594.48 37.35, -613.06 140.06, -637.74 166.18" stroke="#1e1e1e" stroke-width="1" fill="none"></path></g><g transform="translate(2129.4047619047606 763.4512116943047) rotate(0 -318.0237607951758 83.33333333333337)"><path d="M-633.42 141.55 C-636.2 148.17, -637.88 155.9, -637.74 166.18 M-633.42 141.55 C-633.4 145.48, -635.59 150.59, -637.74 166.18" stroke="#1e1e1e" stroke-width="1" fill="none"></path></g><g transform="translate(2129.4047619047606 763.4512116943047) rotate(0 -318.0237607951758 83.33333333333337)"><path d="M-618.61 150.09 C-626.02 154.13, -632.31 159.2, -637.74 166.18 M-618.61 150.09 C-621.54 152.2, -626.71 155.59, -637.74 166.18" stroke="#1e1e1e" stroke-width="1" fill="none"></path></g></g><mask></mask><g stroke-linecap="round"><g transform="translate(1459.2799162741258 923.4512116943047) rotate(0 -276.6042438513491 -41.6666666666664)"><path d="M0.14 -0.28 C-66.49 -14.72, -307.94 -86.74, -400.1 -86.22 C-492.26 -85.71, -527.41 -11.98, -552.84 2.81 M-1.25 -1.47 C-68.03 -16.31, -309.14 -89, -401.17 -88.11 C-493.19 -87.23, -528.25 -11.37, -553.42 3.86" stroke="#1e1e1e" stroke-width="1" fill="none"></path></g><g transform="translate(1459.2799162741258 923.4512116943047) rotate(0 -276.6042438513491 -41.6666666666664)"><path d="M-542.78 -18.76 C-546.07 -12.94, -547.78 -5.77, -553.42 3.86 M-542.78 -18.76 C-545.37 -13.3, -548.73 -7.07, -553.42 3.86" stroke="#1e1e1e" stroke-width="1" fill="none"></path></g><g transform="translate(1459.2799162741258 923.4512116943047) rotate(0 -276.6042438513491 -41.6666666666664)"><path d="M-530.72 -6.63 C-537.36 -4.11, -542.37 -0.26, -553.42 3.86 M-530.72 -6.63 C-536.46 -4.36, -542.91 -1.24, -553.42 3.86" stroke="#1e1e1e" stroke-width="1" fill="none"></path></g></g><mask></mask></svg>